<?xml version="1.0" encoding="UTF-8"?>
<svg xmlns="http://www.w3.org/2000/svg" viewBox="0 0 24 24" width="24" height="24">
  <rect width="24" height="24" rx="4" fill="#0A66C2"/>
  <path d="M6.94 8.5h2.6V18h-2.6V8.5zM8.24 6.8c.83 0 1.34.54 1.34 1.22-.02.69-.51 1.22-1.32 1.22-.82 0-1.34-.53-1.34-1.22 0-.68.52-1.22 1.32-1.22zM12.5 11.1c.01 1.01.01 6.9.01 6.9h-2.6v-6.1c0-1.54-.55-2.59-1.92-2.59-1.05 0-1.67.71-1.94 1.39-.1.25-.12.61-.12.96v6.34H3.9s.03-10.28 0-11.36h2.6v1.61c.35-.54.98-1.31 2.38-1.31 1.74 0 3.05 1.14 3.05 3.59z" fill="#fff"/>
</svg>
