<?xml version="1.0" encoding="UTF-8"?>
<svg xmlns="http://www.w3.org/2000/svg" viewBox="0 0 24 24" width="24" height="24">
  <rect width="24" height="24" rx="4" fill="#25D366"/>
  <path d="M17.472 14.382c-.297-.149-1.758-.867-2.03-.967-.273-.099-.472-.148-.672.149-.198.297-.768.966-.941 1.164-.173.198-.347.223-.644.075-.297-.149-1.255-.462-2.39-1.475-.885-.788-1.48-1.761-1.653-2.058-.173-.297-.018-.458.13-.606.134-.133.298-.347.447-.52.149-.173.198-.298.298-.497.099-.198.05-.371.025-.52-.025-.149-.672-1.611-.92-2.206-.242-.579-.487-.5-.672-.51-.173-.01-.371-.012-.57-.012-.198 0-.52.074-.792.37-.273.297-1.04 1.016-1.04 2.479 0 1.461 1.064 2.875 1.213 3.074.149.198 2.095 3.2 5.076 4.487 2.981 1.287 2.98.857 3.516.803.536-.053 1.75-.717 2.005-1.413.255-.695.255-1.29.18-1.413-.077-.124-.28-.203-.58-.352z" fill="#ffffff"/>
</svg>
